<svg width="154" height="30" viewBox="0 0 154 30" fill="none" xmlns="http://www.w3.org/2000/svg">
<path d="M34.169 11.8242H18.5489V17.6818H34.169V11.8242Z" fill="#E50013"/>
<path d="M29.3802 6.96973H23.5226V22.5898H29.3802V6.96973Z" fill="#E50013"/>
<path d="M15.9863 17.0635L21.3489 22.426L14.9138 28.8611C14.2501 29.5248 13.3499 29.8977 12.4113 29.8977C11.4727 29.8977 10.5725 29.5248 9.90877 28.8611L7.04874 26.0011L15.9863 17.0635Z" fill="url(#paint0_linear_157_106)"/>
<path d="M15.627 24.929L14.3732 23.6751L13.8372 23.1392L6.75904 16.061C6.11876 15.4207 5.25034 15.061 4.34485 15.061C3.43936 15.061 2.57101 15.4207 1.93073 16.061C1.29045 16.7013 0.930725 17.5697 0.930725 18.4752C0.930725 19.3807 1.29045 20.2491 1.93073 20.8894L9.97456 28.9332C10.2915 29.2504 10.6678 29.5021 11.0821 29.6738C11.4963 29.8455 11.9403 29.9338 12.3887 29.9338C12.8372 29.9338 13.2812 29.8455 13.6954 29.6738C14.1097 29.5021 14.486 29.2504 14.8029 28.9332L15.7837 27.9524L17.2146 26.5216L18.6454 25.0908C18.2102 25.4391 17.662 25.6151 17.1053 25.5853C16.5487 25.5555 16.0225 25.3219 15.627 24.929Z" fill="url(#paint1_linear_157_106)"/>
<path d="M4.73321 18.6596L7.04883 16.349L8.15097 15.2418L21.1698 2.22296C20.4655 1.51822 19.6293 0.959189 18.7089 0.577764C17.7884 0.196339 16.8019 0 15.8056 0C14.8092 0 13.8227 0.196339 12.9023 0.577764C11.9818 0.959189 11.1456 1.51822 10.4413 2.22296L2.22046 10.4489C0.798715 11.871 0 13.7996 0 15.8106C0 17.8215 0.798715 19.7502 2.22046 21.1723L4.74839 23.7003C4.41339 23.372 4.14698 22.9804 3.96464 22.5483C3.78231 22.1162 3.68765 21.6521 3.68624 21.1831C3.68483 20.7141 3.7767 20.2495 3.95643 19.8162C4.13617 19.383 4.40019 18.9898 4.73321 18.6596Z" fill="url(#paint2_linear_157_106)"/>
<path d="M51.3406 8.71191L48.8127 11.2398L46.5022 13.5504L45.3949 14.6576L38.4937 21.5588L32.3812 27.6714C33.8033 29.0931 35.7319 29.8918 37.7429 29.8918C39.7538 29.8918 41.6825 29.0931 43.1047 27.6714L51.3255 19.4506C52.0328 18.7471 52.5942 17.911 52.9779 16.9902C53.3615 16.0694 53.5597 15.0819 53.5611 14.0844C53.5625 13.0869 53.3671 12.0989 52.9861 11.177C52.6051 10.2551 52.0459 9.41738 51.3406 8.71191Z" fill="url(#paint3_linear_157_106)"/>
<path d="M51.3418 8.71317L45.4467 2.81299L40.0824 8.17725L45.4113 13.5061L46.5186 14.6083L48.8291 16.9239C49.1608 17.2529 49.4241 17.6443 49.6037 18.0756C49.7834 18.5069 49.8759 18.9694 49.8759 19.4366C49.8759 19.9038 49.7834 20.3664 49.6037 20.7977C49.4241 21.229 49.1608 21.6204 48.8291 21.9494L51.357 19.4215C52.7721 17.9979 53.5651 16.0714 53.5623 14.0642C53.5594 12.057 52.7609 10.1327 51.3418 8.71317Z" fill="url(#paint4_linear_157_106)"/>
<path d="M44.0012 6.39595C44.5683 5.83415 45.3076 5.47895 46.1006 5.38728C46.8935 5.29561 47.6943 5.47277 48.3746 5.89037L48.4858 5.86003L46.5191 3.8933L43.6676 1.04684C43.3386 0.71513 42.9472 0.451848 42.5159 0.272172C42.0846 0.0924966 41.622 0 41.1548 0C40.6876 0 40.225 0.0924966 39.7937 0.272172C39.3625 0.451848 38.9711 0.71513 38.642 1.04684L32.2161 7.46779L37.5803 12.8321L42.9496 7.46273L44.0012 6.39595Z" fill="url(#paint5_linear_157_106)"/>
<path d="M134.626 23.185H137.302C137.35 23.185 137.397 23.1656 137.431 23.1311C137.466 23.0965 137.485 23.0496 137.485 23.0007V19.4148C137.485 19.3596 137.53 19.3148 137.585 19.3148H141.832C141.887 19.3148 141.932 19.3596 141.932 19.4148V22.2881C141.932 22.337 141.951 22.3839 141.985 22.4184C142.02 22.453 142.066 22.4724 142.115 22.4724H144.619C144.668 22.4724 144.714 22.453 144.749 22.4184C144.783 22.3839 144.802 22.337 144.802 22.2881V19.3779C144.802 19.3227 144.847 19.2779 144.902 19.2779H149.271C149.327 19.2779 149.371 19.3227 149.371 19.3779V20.5794C149.371 20.6071 149.349 20.6294 149.321 20.6294H147.644C147.607 20.6294 147.583 20.6685 147.599 20.7017L148.785 23.0867C148.801 23.1151 148.824 23.139 148.852 23.1561C148.88 23.1733 148.911 23.1832 148.944 23.185H152.132C152.181 23.185 152.227 23.1656 152.262 23.1311C152.296 23.0965 152.315 23.0496 152.315 23.0007V8.90821C152.315 8.85933 152.296 8.81247 152.262 8.77791C152.227 8.74335 152.181 8.72392 152.132 8.72392H147.425C147.374 8.72392 147.356 8.65736 147.399 8.63115L151.851 5.93492C151.877 5.91648 151.897 5.89253 151.912 5.86488C151.927 5.83722 151.935 5.80657 151.937 5.77519V3.72334C151.939 3.69867 151.935 3.67391 151.927 3.65072C151.918 3.62752 151.905 3.60645 151.887 3.58896C151.87 3.57147 151.849 3.55794 151.826 3.54933C151.803 3.54072 151.778 3.53722 151.754 3.53906H134.626C134.578 3.53906 134.531 3.55849 134.497 3.59305C134.462 3.62761 134.443 3.67447 134.443 3.72334V5.77519C134.443 5.82407 134.462 5.87092 134.497 5.90549C134.531 5.94005 134.578 5.95948 134.626 5.95948H146.989C147.04 5.95948 147.058 6.02669 147.015 6.05255L143.482 8.13542C143.446 8.15679 143.4 8.1532 143.368 8.12643L142.2 7.16356C142.16 7.15195 142.118 7.15195 142.078 7.16356H138.196C138.15 7.16356 138.129 7.22186 138.164 7.25186L140.124 8.89595H134.687C134.639 8.89595 134.592 8.91534 134.558 8.9499C134.523 8.98446 134.504 9.03136 134.504 9.08024V23.1727C134.542 23.1908 134.585 23.1952 134.626 23.185ZM141.856 15.1866C141.911 15.1866 141.956 15.2314 141.956 15.2866V16.5732C141.956 16.6285 141.911 16.6732 141.856 16.6732H137.487C137.432 16.6732 137.387 16.6285 137.387 16.5732V15.2866C137.387 15.2314 137.432 15.1866 137.487 15.1866H141.856ZM137.487 12.6433C137.432 12.6433 137.387 12.5985 137.387 12.5433V11.3672C137.387 11.312 137.432 11.2672 137.487 11.2672H141.856C141.911 11.2672 141.956 11.312 141.956 11.3672V12.5433C141.956 12.5985 141.911 12.6433 141.856 12.6433H137.487ZM144.927 12.6433C144.872 12.6433 144.827 12.5985 144.827 12.5433V11.3672C144.827 11.312 144.872 11.2672 144.927 11.2672H149.296C149.351 11.2672 149.396 11.312 149.396 11.3672V12.5433C149.396 12.5985 149.351 12.6433 149.296 12.6433H144.927ZM149.296 15.1866C149.351 15.1866 149.396 15.2314 149.396 15.2866V16.5732C149.396 16.6285 149.351 16.6732 149.296 16.6732H144.976C144.921 16.6732 144.876 16.6285 144.876 16.5732V15.2866C144.876 15.2314 144.921 15.1866 144.976 15.1866H149.296Z" fill="#272727"/>
<path d="M152.914 24.3154C152.895 24.2915 152.871 24.2725 152.843 24.2597C152.816 24.2469 152.786 24.2407 152.755 24.2417H135.017L131.78 21.2069V10.8986C131.78 10.8497 131.761 10.8029 131.726 10.7683C131.692 10.7338 131.645 10.7143 131.597 10.7143H127.431C127.382 10.7143 127.336 10.7338 127.301 10.7683C127.267 10.8029 127.248 10.8497 127.248 10.8986V13.3559H128.75V21.8581L127.333 23.2833C127.316 23.3268 127.316 23.375 127.333 23.4185V26.785C127.331 26.8217 127.34 26.8582 127.36 26.8892C127.38 26.9201 127.409 26.9439 127.443 26.957H127.516C127.536 26.9651 127.556 26.9693 127.577 26.9693C127.598 26.9693 127.619 26.9651 127.639 26.957L130.607 24.0451H130.693L133.722 26.8341C133.765 26.8512 133.813 26.8512 133.857 26.8341H151.815C151.849 26.8358 151.884 26.8275 151.914 26.81C151.945 26.7926 151.969 26.7669 151.986 26.7358L153.024 24.4751C153.017 24.4424 153.004 24.4113 152.985 24.3838C152.966 24.3564 152.942 24.3331 152.914 24.3154Z" fill="#272727"/>
<path d="M132.061 8.34306C132.088 8.35342 132.119 8.35342 132.146 8.34306H132.244C132.272 8.32709 132.294 8.30367 132.309 8.27545C132.325 8.24723 132.332 8.21532 132.33 8.18333V5.46804C132.328 5.43667 132.32 5.40601 132.305 5.37835C132.29 5.3507 132.269 5.32676 132.244 5.30831L128.127 3.02306C128.101 3.00796 128.072 3 128.042 3C128.012 3 127.982 3.00796 127.956 3.02306C127.927 3.03519 127.903 3.05565 127.885 3.08189C127.868 3.10813 127.858 3.13896 127.858 3.17049V5.88578C127.856 5.91936 127.864 5.95289 127.882 5.98158C127.899 6.01026 127.925 6.03265 127.956 6.0455L132.061 8.34306Z" fill="#272727"/>
<path d="M76.0727 21.0487L67.1548 23.506C67.115 23.517 67.0801 23.5412 67.0557 23.5747C67.0314 23.6081 67.0189 23.6489 67.0204 23.6903V26.1476C67.0199 26.1733 67.0251 26.1987 67.0357 26.2221C67.0463 26.2455 67.0619 26.2662 67.0815 26.2827C67.1168 26.2971 67.1562 26.2971 67.1914 26.2827L76.1093 23.8992C76.1493 23.8931 76.1854 23.8719 76.2104 23.8399C76.2354 23.808 76.2473 23.7676 76.2437 23.7272V21.2699C76.2423 21.2148 76.2205 21.1622 76.1826 21.1224C76.1534 21.0882 76.1154 21.0626 76.0727 21.0487Z" fill="#272727"/>
<path d="M71.1006 12.4605V12.522L67.2769 18.4808C67.2595 18.5084 67.2503 18.5404 67.2503 18.573C67.2503 18.6056 67.2595 18.6376 67.2769 18.6652C67.2897 18.6963 67.312 18.7225 67.3405 18.7402C67.369 18.7578 67.4024 18.766 67.4357 18.7634H75.9872C76.0358 18.7634 76.0824 18.744 76.1167 18.7095C76.1511 18.6749 76.1704 18.628 76.1704 18.5792V16.2939C76.1704 16.245 76.1511 16.1981 76.1167 16.1636C76.0824 16.129 76.0358 16.1096 75.9872 16.1096H72.3223C72.3127 16.114 72.3023 16.1163 72.2917 16.1163C72.2812 16.1163 72.2708 16.114 72.2612 16.1096L77.0866 8.35686C77.1017 8.32631 77.1095 8.29268 77.1095 8.25858C77.1095 8.22448 77.1017 8.19082 77.0866 8.16027C77.0683 8.13485 77.0445 8.11393 77.017 8.09904C76.9895 8.08415 76.959 8.07566 76.9278 8.07425H74.057C74.0282 8.07198 73.9993 8.07765 73.9735 8.09064C73.9477 8.10363 73.9259 8.12344 73.9104 8.14797L72.8354 9.76978H70.7219V9.70837L73.2751 3.258C73.2901 3.23186 73.298 3.20218 73.298 3.17199C73.298 3.1418 73.2901 3.11213 73.2751 3.08598C73.2568 3.06055 73.233 3.03964 73.2055 3.02475C73.178 3.00986 73.1475 3.0014 73.1163 3H70.2455C70.2083 3.00197 70.1725 3.01457 70.1422 3.03633C70.1119 3.0581 70.0884 3.0881 70.0745 3.12283L66.5684 12.2025C66.5534 12.2287 66.5455 12.2583 66.5455 12.2885C66.5455 12.3187 66.5534 12.3483 66.5684 12.3745C66.5833 12.4004 66.6046 12.422 66.6303 12.4371C66.656 12.4522 66.6852 12.4602 66.715 12.4605H71.1006Z" fill="#272727"/>
<path d="M92.9556 24.3292H86.7574C86.7375 24.3292 86.7171 24.3184 86.7171 24.2985C86.7171 24.2774 86.7253 24.2567 86.7253 24.2356V6.59102C86.7253 6.48057 86.8148 6.39102 86.9253 6.39102H92.0882C92.1368 6.39102 92.1835 6.37163 92.2178 6.33707C92.2522 6.30251 92.2715 6.25561 92.2715 6.20673V3.90918C92.2715 3.8603 92.2522 3.81341 92.2178 3.77885C92.1835 3.74429 92.1368 3.72489 92.0882 3.72489H77.844C77.7954 3.72489 77.7488 3.74429 77.7145 3.77885C77.6801 3.81341 77.6608 3.8603 77.6608 3.90918V6.20673C77.6608 6.25561 77.6801 6.30251 77.7145 6.33707C77.7488 6.37163 77.7954 6.39102 77.844 6.39102H83.5904C83.6113 6.39102 83.6319 6.38281 83.6529 6.38281C83.6727 6.38281 83.6834 6.40321 83.6834 6.42303V24.2154C83.6834 24.2257 83.6831 24.2362 83.6795 24.2458C83.6758 24.2555 83.6702 24.2643 83.6628 24.2716C83.6556 24.2789 83.6469 24.2846 83.6374 24.2883C83.6277 24.292 83.6171 24.2923 83.6067 24.2923H76.7568C76.7082 24.2923 76.6616 24.3118 76.6272 24.3463C76.5929 24.3809 76.5735 24.4277 76.5735 24.4766V26.7865C76.5735 26.8353 76.5929 26.8822 76.6272 26.9168C76.6616 26.9514 76.7082 26.9708 76.7568 26.9708H92.9556C92.9954 26.9597 93.0302 26.9355 93.0546 26.9021C93.079 26.8687 93.0915 26.8279 93.09 26.7865V24.5381C93.0976 24.4927 93.088 24.446 93.0631 24.4074C93.0383 24.3687 92.9999 24.3408 92.9556 24.3292Z" fill="#272727"/>
<path d="M106.695 10.4477L104.728 12.9665C104.707 12.9926 104.696 13.0251 104.696 13.0586C104.696 13.0921 104.707 13.1246 104.728 13.1508C104.738 13.1842 104.76 13.2131 104.788 13.2331C104.817 13.2531 104.852 13.263 104.887 13.2613H107.721C107.749 13.2597 107.776 13.2523 107.802 13.2396C107.827 13.2269 107.849 13.2093 107.867 13.1876L109.81 10.6689C109.825 10.6383 109.833 10.6047 109.833 10.5706C109.833 10.5365 109.825 10.5028 109.81 10.4723C109.792 10.4421 109.767 10.4172 109.737 10.3999C109.707 10.3827 109.673 10.3737 109.639 10.374H106.853C106.823 10.3708 106.792 10.3759 106.764 10.3889C106.736 10.4019 106.712 10.4222 106.695 10.4477Z" fill="#272727"/>
<path d="M119.888 10.374H117.213C117.179 10.3715 117.146 10.3796 117.118 10.3973C117.089 10.4149 117.067 10.4412 117.054 10.4723C117.037 10.4999 117.027 10.5318 117.027 10.5645C117.027 10.5971 117.037 10.6291 117.054 10.6566L118.776 13.1753C118.793 13.1992 118.815 13.2193 118.841 13.2341C118.866 13.2489 118.894 13.2582 118.923 13.2613H121.611C121.645 13.2616 121.679 13.2527 121.709 13.2354C121.739 13.2182 121.764 13.1932 121.782 13.163C121.797 13.1325 121.805 13.0988 121.805 13.0647C121.805 13.0306 121.797 12.997 121.782 12.9665L120.059 10.4477C120.04 10.4212 120.014 10.4004 119.984 10.3874C119.954 10.3744 119.921 10.3698 119.888 10.374Z" fill="#272727"/>
<path d="M104.838 9.80886H111.862C111.896 9.80886 111.923 9.83635 111.923 9.87027V13.1876C111.923 13.2365 111.942 13.2833 111.977 13.3179C112.011 13.3525 112.058 13.3719 112.106 13.3719H114.733C114.781 13.3719 114.828 13.3525 114.862 13.3179C114.897 13.2833 114.916 13.2365 114.916 13.1876V9.90885C114.916 9.85363 114.961 9.80886 115.016 9.80886H121.831C121.879 9.80885 121.926 9.78942 121.96 9.75486C121.994 9.7203 122.014 9.67344 122.014 9.62457V7.44985C122.014 7.40097 121.994 7.35411 121.96 7.31955C121.926 7.28499 121.879 7.26556 121.831 7.26556H114.955C114.9 7.26556 114.855 7.22079 114.855 7.16556V5.92386C114.855 5.87029 114.897 5.82624 114.951 5.82396L121.488 5.54547C121.537 5.54547 121.584 5.52604 121.618 5.49148C121.652 5.45691 121.672 5.41006 121.672 5.36118V3.30933C121.69 3.26182 121.69 3.20942 121.672 3.1619C121.65 3.15278 121.628 3.14807 121.605 3.14807C121.581 3.14807 121.559 3.15278 121.537 3.1619L105.29 3.8991C105.266 3.89904 105.243 3.90383 105.221 3.91323C105.2 3.92263 105.18 3.93643 105.164 3.95373C105.148 3.97102 105.136 3.99148 105.128 4.01379C105.12 4.0361 105.117 4.05978 105.119 4.08338V6.13519C105.119 6.16047 105.124 6.18548 105.134 6.20868C105.144 6.23188 105.158 6.25278 105.177 6.27006C105.195 6.28735 105.217 6.30067 105.24 6.30917C105.264 6.31768 105.289 6.3212 105.314 6.31952L111.819 6.04138C111.876 6.03895 111.923 6.08438 111.923 6.14129V7.16556C111.923 7.22079 111.878 7.26556 111.823 7.26556H104.777C104.728 7.26556 104.681 7.28499 104.647 7.31955C104.613 7.35411 104.593 7.40097 104.593 7.44985V9.62457C104.594 9.65405 104.602 9.68294 104.615 9.70912C104.629 9.7353 104.648 9.75808 104.671 9.77578C104.695 9.79349 104.722 9.80565 104.751 9.81137C104.78 9.81709 104.809 9.81624 104.838 9.80886Z" fill="#272727"/>
<path d="M123.089 24.4665C123.07 24.4427 123.046 24.4236 123.018 24.4108C122.99 24.398 122.96 24.3919 122.93 24.3928H104.887L101.625 21.3458V11.0375C101.625 10.9886 101.605 10.9417 101.571 10.9072C101.537 10.8726 101.49 10.8532 101.442 10.8532H97.2758C97.2272 10.8532 97.1806 10.8726 97.1462 10.9072C97.1118 10.9417 97.0925 10.9886 97.0925 11.0375V13.4948C97.0925 13.5437 97.1118 13.5905 97.1462 13.6251C97.1806 13.6596 97.2272 13.6791 97.2758 13.6791H98.644V22.0092L97.2391 23.3116C97.2224 23.3593 97.2224 23.4113 97.2391 23.459V26.7641C97.24 26.8001 97.2507 26.8353 97.2701 26.8656C97.2895 26.896 97.3168 26.9203 97.3491 26.9361C97.3796 26.9572 97.4158 26.9685 97.4529 26.9685C97.49 26.9685 97.5262 26.9572 97.5567 26.9361L100.464 24.1348H100.55L103.64 26.9852C103.659 26.9949 103.68 27 103.702 27C103.723 27 103.744 26.9949 103.763 26.9852H122.295C122.331 26.9876 122.368 26.9782 122.398 26.9583C122.429 26.9384 122.453 26.9091 122.466 26.8747L123.248 24.6017C123.242 24.5637 123.222 24.5292 123.193 24.5043C123.164 24.4795 123.127 24.4661 123.089 24.4665Z" fill="#272727"/>
<path d="M107.562 23.2379C107.598 23.2403 107.635 23.2308 107.666 23.2109C107.696 23.191 107.72 23.1617 107.733 23.1273L110.763 17.107H115.331L114.879 18.8394H118.752L118.459 20.5472C118.459 20.5472 118.459 20.5472 118.398 20.5472H115.649C115.62 20.5485 115.591 20.5571 115.565 20.5721C115.54 20.587 115.518 20.608 115.502 20.6332C115.487 20.6593 115.48 20.689 115.48 20.7192C115.48 20.7494 115.487 20.779 115.502 20.8052L116.541 22.9676C116.549 23.0033 116.57 23.035 116.599 23.0574C116.628 23.0798 116.663 23.0914 116.7 23.0905H120.865C120.908 23.0913 120.95 23.0771 120.984 23.0501C121.017 23.0232 121.04 22.9853 121.049 22.943L122.038 16.3821C122.051 16.3597 122.058 16.3342 122.058 16.3083C122.058 16.2825 122.051 16.257 122.038 16.2346C121.999 16.1954 121.947 16.1733 121.892 16.1732H118.349L118.801 14.4408H104.838C104.79 14.4437 104.745 14.4641 104.711 14.498C104.678 14.532 104.657 14.5772 104.654 14.6251V16.7998C104.654 16.8487 104.674 16.8956 104.708 16.9301C104.742 16.9647 104.789 16.9841 104.838 16.9841H107.55C107.559 16.9787 107.569 16.9759 107.58 16.9759C107.591 16.9759 107.601 16.9787 107.611 16.9841C107.611 16.9841 107.611 16.9841 107.611 17.0455L104.654 22.8447C104.637 22.8723 104.628 22.9042 104.628 22.9369C104.628 22.9695 104.637 23.0014 104.654 23.029C104.67 23.0542 104.692 23.0751 104.717 23.0901C104.743 23.1051 104.771 23.1136 104.801 23.115L107.562 23.2379Z" fill="#272727"/>
<path d="M97.7156 6.13519L102.394 8.98565C102.422 8.99601 102.452 8.99601 102.48 8.98565H102.565C102.594 8.96932 102.617 8.94616 102.634 8.91827C102.652 8.89038 102.661 8.85862 102.663 8.82592V6.03692C102.664 6.00514 102.656 5.97372 102.641 5.94573C102.626 5.91774 102.604 5.89414 102.578 5.87719L97.8988 3.02673C97.8714 3.00925 97.8396 3 97.8072 3C97.7747 3 97.743 3.00925 97.7156 3.02673C97.6846 3.03959 97.6585 3.06198 97.6409 3.09066C97.6234 3.11935 97.6153 3.15288 97.6178 3.18646V6.03692C97.6248 6.06012 97.6374 6.08123 97.6545 6.09837C97.6715 6.11552 97.6925 6.12816 97.7156 6.13519Z" fill="#272727"/>
<defs>
<linearGradient id="paint0_linear_157_106" x1="9.53293" y1="27.0789" x2="21.303" y2="18.9592" gradientUnits="userSpaceOnUse">
<stop stop-color="#980A08"/>
<stop offset="1" stop-color="#CA020D"/>
</linearGradient>
<linearGradient id="paint1_linear_157_106" x1="14.4844" y1="27.467" x2="3.64463" y2="15.9043" gradientUnits="userSpaceOnUse">
<stop offset="0.2" stop-color="#E30014"/>
<stop offset="0.95" stop-color="#9F0003"/>
</linearGradient>
<linearGradient id="paint2_linear_157_106" x1="1.99798" y1="18.7455" x2="17.3526" y2="1.18651" gradientUnits="userSpaceOnUse">
<stop stop-color="#EC5535"/>
<stop offset="1" stop-color="#CE000C"/>
</linearGradient>
<linearGradient id="paint3_linear_157_106" x1="35.0735" y1="30.3384" x2="54.0212" y2="11.3907" gradientUnits="userSpaceOnUse">
<stop offset="0.02" stop-color="#E84930"/>
<stop offset="0.66" stop-color="#B9050B"/>
</linearGradient>
<linearGradient id="paint4_linear_157_106" x1="42.3535" y1="8.11728" x2="51.3911" y2="16.1683" gradientUnits="userSpaceOnUse">
<stop stop-color="#B40008"/>
<stop offset="0.83" stop-color="#EA5033"/>
</linearGradient>
<linearGradient id="paint5_linear_157_106" x1="35.8797" y1="11.1222" x2="44.8172" y2="2.18467" gradientUnits="userSpaceOnUse">
<stop stop-color="#CE000C"/>
<stop offset="1" stop-color="#EC5435"/>
</linearGradient>
</defs>
</svg>
